<?xml version="1.0" encoding="utf-8"?>
<!-- Generator: Adobe Illustrator 23.0.2, SVG Export Plug-In . SVG Version: 6.00 Build 0)  -->
<svg version="1.1" id="Capa_1" xmlns="http://www.w3.org/2000/svg" xmlns:xlink="http://www.w3.org/1999/xlink" x="0px" y="0px"
	 viewBox="0 0 512 512" style="enable-background:new 0 0 512 512;" xml:space="preserve">
<style type="text/css">
	.st0{fill:#FFFFFF;}
</style>
<g>
	<g>
		<path class="st0" d="M286,451.29c-5.52,0-10,4.48-10,10s4.48,10,10,10s10-4.48,10-10S291.52,451.29,286,451.29z"/>
	</g>
</g>
<g>
	<g>
		<path class="st0" d="M145.5,200.29c-5.52,0-10,4.48-10,10v191c0,5.52,4.48,10,10,10s10-4.48,10-10v-191
			C155.5,204.77,151.02,200.29,145.5,200.29z"/>
	</g>
</g>
<g>
	<g>
		<path class="st0" d="M225.5,200.29c-5.52,0-10,4.48-10,10v191c0,5.52,4.48,10,10,10s10-4.48,10-10v-191
			C235.5,204.77,231.02,200.29,225.5,200.29z"/>
	</g>
</g>
<g>
	<g>
		<path class="st0" d="M426.5,161h-50v-30.26c15.67-11.75,23.12-31.61,18.71-51.22c-4.13-18.39-19.31-33.4-37.77-37.35
			c-9.81-2.1-19.69-1.36-28.7,2.06C319.72,30,303.86,21,286.5,21c-6.54,0-12.94,1.27-18.85,3.71C250.91,8.92,228.84,0,206,0
			c-30.22,0-58.4,15.39-75.03,40.58C78.7,37.69,35.5,79.16,35.5,130.29v120c0,16.54,13.68,30,30.5,30c3.69,0,7.22-0.67,10.5-1.89
			V462c0,27.57,22.43,50,50,50h200c27.57,0,50-22.43,50-50v-30h50c27.57,0,50-22.43,50-50V211C476.5,183.43,454.07,161,426.5,161z
			 M356.5,452h-30.51c-5.52,0-10,4.48-10,10s4.48,9.9,10,9.9h28.79c-4.13,11.64-15.24,20.1-28.28,20.1h-200
			c-13.04,0-24.15-8.36-28.28-20h147.79c5.52,0,10-4.48,10-10s-4.48-10-10-10H96.5V250.07v-70.56
			c22.46-3.39,41.91-17.54,52.14-38.51c2.09,0,3.92,0.72,5.31,2.08c11.29,11.1,26.22,17.21,42.05,17.21
			c16.41,0,31.73-6.49,43.13-18.29c0.61-0.63,1.47-0.99,2.37-0.99c15.57,0,25.75,3.32,30.28,9.88c3.73,5.4,3.73,12.91,3.72,18.95
			v40.46c0,13.04,8.36,24.15,20,28.28v162.72c0,5.52,4.48,10,10,10s10-4.48,10-10V238.57c11.64-4.13,20-15.24,20-28.28v-70.46
			c7.01,1.4,14.15,1.41,21,0.01V452z M330.03,116.95c-3.1-1.58-6.8-1.43-9.76,0.39c-2.96,1.82-4.77,5.05-4.77,8.52v84.43
			c0,5.51-4.49,10-10,10s-10-4.49-10-10v-40.45c0-7.88,0.01-19.78-7.26-30.32c-8.48-12.29-24.2-18.52-46.74-18.52
			c-6.29,0-12.4,2.59-16.75,7.1c-7.6,7.86-17.81,12.19-28.75,12.19c-10.55,0-20.51-4.07-28.04-11.48c-5.13-5.04-12-7.81-19.32-7.81
			c-7.58,0-14.62,4.4-17.95,11.2c-8.38,17.16-25.35,27.93-44.28,28.09c-5.49,0.05-9.92,4.51-9.92,10v79.52
			c-0.35,5.89-4.93,10.47-10.5,10.47c-5.69,0-10.5-4.58-10.5-10v-120c0-38.6,31.58-69.85,70.41-69.85c3.02,0,6.05,0.19,9.08,0.58
			c4.04,0.52,8-1.47,9.99-5.03C157.44,33.79,180.82,20,206,20c19.73,0,38.75,8.61,52.19,23.64c3.26,3.64,8.67,4.4,12.8,1.78
			c4.57-2.89,9.94-4.42,15.51-4.42c12.73,0,24.11,8.06,28.31,20.06c1.02,2.92,3.34,5.2,6.28,6.18c2.93,0.98,6.16,0.54,8.73-1.18
			c6.82-4.57,15.13-6.11,23.43-4.33c10.8,2.31,20.03,11.43,22.45,22.18C381.39,109.17,355.49,129.9,330.03,116.95z M376.5,221h40
			v151h-40V221z M456.5,382c0,16.54-13.46,30-30,30h-50v-20h50c5.52,0,10-4.48,10-10V211c0-5.52-4.48-10-10-10h-50v-20h50
			c16.54,0,30,13.46,30,30V382z"/>
	</g>
</g>
</svg>
