<?xml version="1.0" encoding="utf-8"?>
<!-- Generator: Adobe Illustrator 23.0.2, SVG Export Plug-In . SVG Version: 6.00 Build 0)  -->
<svg version="1.1" id="Layer_1" xmlns="http://www.w3.org/2000/svg" xmlns:xlink="http://www.w3.org/1999/xlink" x="0px" y="0px"
	 viewBox="0 0 512 512" style="enable-background:new 0 0 512 512;" xml:space="preserve">
<style type="text/css">
	.st0{fill:#FFFFFF;}
</style>
<path class="st0" d="M236.62,56.79L139.7,37.88c-4.21-0.82-8.46,1.12-10.61,4.82c-1.45,2.5-35.68,62.14-50.56,138.42
	c-3.43,17.6-4.95,35.07-4.59,51.69c0.16,13.01,1.73,26.11,4.66,38.79c0.83,3.59,1.8,7.16,2.9,10.68
	c8.27,26.4,22.47,44.44,40.55,51.89l-20.93,112.82l-45.08-8.8c-11.42-2.23-23.2,4.12-27.54,14.93c-0.73,1.83-1.18,3.73-1.55,5.66
	c-0.36,1.83-0.75,3.65-0.88,5.51c-0.41,5.9,1.38,11.81,4.95,16.53c3.64,4.81,8.98,8.13,14.9,9.29l109.97,21.46
	c9.54,1.86,19.64-2.38,25.11-10.39c1.43-2.1,2.52-4.42,3.21-6.87c0.84-2.99,1.53-6.23,1.68-9.34c0.28-5.71-1.53-11.45-4.97-16.01
	c-3.62-4.79-9.01-8.14-14.91-9.3l-45.18-8.82l20.94-112.86c18.46-0.17,37.26-10.38,54.1-29.54c1.38-1.56,2.7-3.17,4-4.8
	c12.36-15.42,22.7-34.84,30.3-56.62c3.92-11.26,7.02-22.81,9.3-34.51c14.89-76.28,5.59-144.41,5.19-147.27
	C244.05,61,240.83,57.61,236.62,56.79z M165.05,481.28c0.77,1.14,0.82,2.51,0.62,3.82c-0.18,1.21-0.39,2.56-0.84,3.71
	c-0.81,2.11-2.83,3.48-5.12,3.04L49.75,470.39c-1.32-0.26-2.48-1.12-3.12-2.31c-0.88-1.61-0.4-3.28-0.08-4.97
	c0.29-1.52,0.51-3.01,1.71-4.1c1.05-0.95,2.53-1.38,3.93-1.11l109.97,21.46C163.76,479.67,164.66,480.7,165.05,481.28z
	 M143.08,58.99l82.48,16.09c1.91,19.09,5.75,74.35-5.81,133.59c-0.92,4.72-1.99,9.37-3.17,13.93H94.02
	c0.33-12.2,1.73-24.86,4.22-37.64C109.78,125.84,134.14,75.98,143.08,58.99z M201.82,262.97c-5.11,10.43-11.24,20.42-18.63,29.39
	c-10.78,13.09-22.16,21.38-33.11,24.32c-5.52,1.46-11.32,1.65-16.84,0.12c-9.31-2.59-17.45-9.8-23.86-20.5
	c-7.41-12.45-11.35-26.88-13.47-41.12c-0.62-4.14-1.07-8.32-1.39-12.5h115.89C207.9,249.59,205.06,256.38,201.82,262.97z"/>
<path class="st0" d="M202.14,174.27c0.31,0.03,0.62,0.04,0.93,0.04c5.13,0,9.51-3.92,9.99-9.13c1.88-20.65,2.41-41.99,1.56-63.43
	c-0.22-5.54-4.84-9.86-10.43-9.64c-5.54,0.22-9.86,4.89-9.64,10.43c0.82,20.57,0.31,41.02-1.5,60.81
	C192.55,168.88,196.62,173.77,202.14,174.27z"/>
<path class="st0" d="M485.54,461.22c-0.71-3.68-1.5-7.39-3.29-10.73c-1.52-2.86-3.7-5.38-6.23-7.39c-5.62-4.47-13-6.29-20.05-4.91
	l-45.13,8.8l-22.02-112.88c38.7-16.09,57.65-80.2,43.44-153.01C417.38,104.84,383.14,45.2,381.7,42.7
	c-2.15-3.7-6.41-5.64-10.61-4.82l-96.93,18.91c-4.2,0.82-7.42,4.22-8.02,8.46c-0.4,2.86-9.7,71,5.19,147.27
	c14.21,72.81,55.87,125.1,97.78,125.46l22.02,112.88l-45.13,8.8c-9.4,1.83-17.11,9.36-19.29,18.67c-1.29,5.53-0.43,11.45,1.32,16.78
	c1.7,5.19,5.18,9.75,9.72,12.77c5.36,3.56,12.05,4.91,18.37,3.68L466.1,490.1C479.26,487.53,488.12,474.4,485.54,461.22z
	 M285.23,75.09l82.48-16.09c8.95,17,33.3,66.85,44.84,125.97c0.51,2.62,0.97,5.23,1.39,7.84H288.29
	C280.18,139.87,283.5,92.48,285.23,75.09z M465.14,468.47c-0.39,0.58-1.29,1.6-2.89,1.91l-109.96,21.46
	c-1.39,0.27-2.88-0.16-3.92-1.11c-1.19-1.07-1.43-2.62-1.72-4.12c-0.3-1.53-0.73-3.15-0.07-4.65c0.59-1.33,1.84-2.34,3.27-2.61
	l109.96-21.46c2.26-0.44,4.3,0.97,5.12,3.04C465.77,463.05,466.51,466.44,465.14,468.47z M367.6,317.85
	c-8.66-0.52-16.76-4.48-23.66-9.55s-12.84-11.35-18.11-18.08c-3.19-4.08-6.12-8.36-8.83-12.76c-5.16-8.37-9.89-17.79-14-28.01
	c-4.77-11.83-8.43-24.1-11.11-36.57h124.34c1.28,18.27,0.48,36.96-3.77,54.82c-1.21,5.1-2.72,10.13-4.59,15.02
	c-7.05,18.42-17.62,30.37-29.99,33.98C374.56,317.68,371.07,318.05,367.6,317.85z"/>
<path class="st0" d="M263.94,10.04C263.94,4.5,259.45,0,253.9,0c-5.55,0-10.04,4.5-10.04,10.04v32.62c0,5.54,4.49,10.04,10.04,10.04
	c5.54,0,10.04-4.5,10.04-10.04V10.04z"/>
<path class="st0" d="M213.19,37.99c1.89,3.11,5.2,4.83,8.59,4.83c1.77,0,3.57-0.47,5.2-1.46c4.74-2.88,6.25-9.05,3.37-13.79
	L217.98,7.2c-2.88-4.73-9.05-6.25-13.79-3.37c-4.74,2.88-6.25,9.05-3.37,13.79L213.19,37.99z"/>
<path class="st0" d="M282.82,41.36c1.62,0.99,3.43,1.46,5.2,1.46c3.39,0,6.7-1.72,8.59-4.83l12.37-20.37
	c2.88-4.74,1.37-10.91-3.37-13.79c-4.74-2.88-10.91-1.37-13.79,3.37l-12.37,20.38C276.57,32.31,278.08,38.48,282.82,41.36z"/>
<path class="st0" d="M360.73,125.02c3.82,10.47,7.27,21.08,10.3,31.8c1.2,4.24,1.85,8.71,5.94,11.17c3.6,2.16,8.3,1.82,11.55-0.85
	c3.04-2.5,4.29-6.56,3.32-10.35c-1.32-5.21-2.88-10.37-4.46-15.5c-1.63-5.32-3.37-10.61-5.19-15.86c-0.9-2.6-1.72-5.29-2.8-7.82
	c-0.74-1.73-1.97-3.23-3.52-4.3c-3.54-2.44-8.36-2.33-11.79,0.27C360.61,116.21,359.23,120.93,360.73,125.02z"/>
<path class="st0" d="M207.49,204.04c0,5.57-4.52,10.08-10.08,10.08c-5.57,0-10.08-4.52-10.08-10.08c0-5.57,4.51-10.08,10.08-10.08
	C202.98,193.96,207.49,198.47,207.49,204.04z"/>
<path class="st0" d="M365.11,84.57c0,5.57-4.52,10.08-10.08,10.08s-10.08-4.52-10.08-10.08c0-5.57,4.52-10.08,10.08-10.08
	S365.11,79,365.11,84.57z"/>
</svg>
