<?xml version="1.0" encoding="utf-8"?>
<!-- Generator: Adobe Illustrator 23.0.2, SVG Export Plug-In . SVG Version: 6.00 Build 0)  -->
<svg version="1.1" id="Capa_1" xmlns="http://www.w3.org/2000/svg" xmlns:xlink="http://www.w3.org/1999/xlink" x="0px" y="0px"
	 viewBox="0 0 480 480" style="enable-background:new 0 0 480 480;" xml:space="preserve">
<style type="text/css">
	.st0{fill:#FFFFFF;}
</style>
<g>
	<g>
		<path class="st0" d="M364,48c-32.22,0.05-59.39,24.03-63.45,56h-20.1l25.55-88H332V0h-32c-3.56,0-6.69,2.35-7.68,5.77L263.8,104
			H60c-4.42,0-8,3.58-8,8c0,1.8,0.61,3.56,1.73,4.97L204,306.78V464h-64v16h144v-16h-64V306.78l110.98-140.18
			c9.92,6.15,21.36,9.4,33.02,9.39c35.35,0,64-28.65,64-64C428,76.65,399.35,48,364,48z M76.54,120h182.62l-16.26,56H120.87
			L76.54,120z M212,291.11L133.54,192h104.72l-17.94,61.77l15.36,4.46L254.91,192h35.55L212,291.11z M303.13,176h-43.58l16.26-56
			h71.65L303.13,176z M364,160c-8.08,0.04-16.04-2-23.1-5.93l29.38-37.1c2.74-3.46,2.16-8.5-1.3-11.24
			c-1.41-1.12-3.17-1.73-4.97-1.73h-47.34c4.42-26.14,29.19-43.75,55.33-39.33s43.75,29.19,39.33,55.33
			C407.42,143.09,387.42,160,364,160z"/>
	</g>
</g>
</svg>
