<?xml version="1.0" encoding="utf-8"?>
<!-- Generator: Adobe Illustrator 23.0.2, SVG Export Plug-In . SVG Version: 6.00 Build 0)  -->
<svg version="1.1" id="Layer_1" xmlns="http://www.w3.org/2000/svg" xmlns:xlink="http://www.w3.org/1999/xlink" x="0px" y="0px"
	 viewBox="0 0 511 512" style="enable-background:new 0 0 511 512;" xml:space="preserve">
<style type="text/css">
	.st0{fill:#FFFFFF;}
</style>
<path class="st0" d="M443.68,45.25h-24.89l-6.91-33.53C410.35,4.35,403.78-1,396.25-1H114.86c-7.53,0-14.1,5.35-15.62,12.73
	l-6.92,33.53H67.43c-10.99,0-19.93,8.94-19.93,19.93v32.96c0,10.99,8.94,19.94,19.93,19.94h9.78l5.54,38.95
	c-1.68,0.97-3.21,2.21-4.51,3.7c-3.33,3.84-4.83,8.93-4.11,13.96l37,259.99c1.02,7.17,6.41,12.86,13.21,14.54l5.27,37.02
	c2.01,14.12,14.28,24.76,28.54,24.76h194.82c14.26,0,26.52-10.64,28.54-24.76l5.27-37.02c6.8-1.68,12.19-7.37,13.21-14.54l37-259.99
	c0.71-5.04-0.79-10.12-4.11-13.96c-1.3-1.5-2.83-2.73-4.52-3.7l5.55-38.95h9.78c10.99,0,19.93-8.95,19.93-19.94V65.19
	C463.61,54.2,454.67,45.25,443.68,45.25z M422.11,172.58l-37,259.99c-0.18,1.23-1.25,2.16-2.49,2.16h-71.85
	c-4.14,0-7.5,3.36-7.5,7.51s3.36,7.51,7.5,7.51h60.75l-4.89,34.38c-0.96,6.76-6.84,11.86-13.67,11.86H158.15
	c-6.83,0-12.71-5.1-13.67-11.86l-4.89-34.38h136.25c4.15,0,7.51-3.36,7.51-7.51s-3.36-7.51-7.51-7.51H128.49
	c-1.24,0-2.31-0.93-2.49-2.16L89,172.58c-0.14-0.99,0.31-1.68,0.59-2c0.27-0.31,0.86-0.8,1.77-0.85c0.1,0,0.2-0.01,0.3-0.02h327.79
	c0.1,0.01,0.2,0.02,0.3,0.02c0.91,0.05,1.5,0.54,1.77,0.85C421.8,170.9,422.25,171.59,422.11,172.58z M92.38,118.08h326.35
	l-5.21,36.61H97.59L92.38,118.08z M448.6,98.14c0,2.71-2.21,4.92-4.92,4.92H67.43c-2.71,0-4.92-2.21-4.92-4.92V65.19
	c0-2.71,2.21-4.92,4.92-4.92h67.18c4.14,0,7.5-3.36,7.5-7.51c0-4.14-3.36-7.5-7.5-7.5h-26.95l6.29-30.49
	c0.09-0.43,0.48-0.75,0.92-0.75h281.39c0.44,0,0.83,0.32,0.92,0.75l6.29,30.49H169.54c-4.15,0-7.51,3.36-7.51,7.5
	c0,4.15,3.36,7.51,7.51,7.51h274.13c2.71,0,4.92,2.21,4.92,4.92V98.14z"/>
<path class="st0" d="M312.02,240.42c-0.05-0.05-0.11-0.1-0.16-0.15c-24.95-24.7-70.41-19.57-101.48,11.51
	c-14.85,14.85-24.32,33.41-26.66,52.26c-2.43,19.55,3.02,37.1,15.34,49.42c0,0,0,0,0.01,0.01c0.02,0.02,0.04,0.04,0.06,0.05
	c10.4,10.36,24.5,15.84,40.38,15.84c2.93,0,5.93-0.19,8.98-0.57c18.85-2.34,37.41-11.82,52.26-26.66
	c31.15-31.16,36.23-76.77,11.32-101.68C312.05,240.44,312.04,240.43,312.02,240.42z M198.61,305.89c1.93-15.55,9.88-31,22.38-43.5
	c14.97-14.97,33.72-22.86,50.48-22.86c7.7,0,14.98,1.68,21.29,5.09c-12.61,7.49-32.18,22.22-38.13,44.05
	c-5.18,18.98-33.28,40.01-48.7,49.76C199.64,329.8,197.05,318.47,198.61,305.89z M290.12,331.52c-12.5,12.5-27.95,20.45-43.5,22.38
	c-10.98,1.37-21.02-0.43-29.13-5.09c15.48-10.22,45.13-32.41,51.62-56.19c5.29-19.42,26.21-32.49,35.77-37.57
	C319.74,274.83,313.75,307.88,290.12,331.52z"/>
</svg>
