<?xml version="1.0" encoding="utf-8"?>
<!-- Generator: Adobe Illustrator 23.0.2, SVG Export Plug-In . SVG Version: 6.00 Build 0)  -->
<svg version="1.1" id="Capa_1" xmlns="http://www.w3.org/2000/svg" xmlns:xlink="http://www.w3.org/1999/xlink" x="0px" y="0px"
	 viewBox="0 0 512 512" style="enable-background:new 0 0 512 512;" xml:space="preserve">
<style type="text/css">
	.st0{fill:#FFFFFF;}
</style>
<g>
	<g>
		<path class="st0" d="M502,206.5h-82v-21.17c0-5.52-4.48-10-10-10H194c-5.52,0-10,4.48-10,10s4.48,10,10,10h206V272
			c0,67.35-35.96,129.94-94.02,164H114.02C55.96,401.94,20,339.35,20,272v-76.67h67c5.52,0,10-4.48,10-10s-4.48-10-10-10H10
			c-5.52,0-10,4.48-10,10V272c0,37.8,10.16,74.86,29.38,107.18c12.96,21.8,29.78,41.05,49.48,56.82H10c-5.52,0-10,4.48-10,10
			c0,36.39,29.61,66,66,66h312c36.39,0,66-29.61,66-66c0-5.52-4.48-10-10-10h-92.86c18.13-14.52,33.81-31.98,46.3-51.67h28.23
			c53.12,0,96.33-43.21,96.33-96.33v-71.5C512,210.98,507.52,206.5,502,206.5z M422.9,456c-4.58,20.57-22.97,36-44.9,36H66
			c-21.93,0-40.33-15.43-44.9-36h90.24h197.32H422.9z M420,272v-5.5h32V288c0,20.03-16.3,36.33-36.33,36.33h-2.27
			C417.76,307.33,420,289.74,420,272z M492,288c0,42.09-34.24,76.33-76.33,76.33h-17.02c3.19-6.52,6.05-13.2,8.54-20h8.48
			c31.06,0,56.33-25.27,56.33-56.33v-31.5c0-5.52-4.48-10-10-10h-42v-20h72V288z"/>
	</g>
</g>
<g>
	<g>
		<path class="st0" d="M219.55,55.34l-5.2-6.53c-7.64-9.59-7.65-22.99-0.03-32.59c3.43-4.33,2.71-10.62-1.62-14.05
			c-4.33-3.43-10.62-2.71-14.05,1.62c-13.44,16.94-13.42,40.58,0.05,57.49l5.2,6.53c9.98,12.53,10,30.04,0.04,42.59l-5.33,6.72
			c-3.43,4.33-2.71,10.62,1.62,14.05c1.84,1.46,4.03,2.17,6.21,2.17c2.95,0,5.87-1.3,7.84-3.78l5.33-6.72
			C235.39,102.95,235.36,75.2,219.55,55.34z"/>
	</g>
</g>
<g>
	<g>
		<path class="st0" d="M274.98,77.83l-5.2-6.53c-7.64-9.59-7.65-22.99-0.03-32.59c3.43-4.33,2.71-10.62-1.62-14.05
			c-4.33-3.43-10.62-2.71-14.05,1.62c-13.44,16.94-13.42,40.57,0.05,57.49l5.2,6.53c9.98,12.53,9.99,30.05,0.04,42.6l-5.33,6.72
			c-3.43,4.33-2.71,10.62,1.62,14.05c1.84,1.46,4.03,2.17,6.21,2.17c2.95,0,5.87-1.3,7.84-3.78l5.33-6.72
			C290.82,125.43,290.79,97.68,274.98,77.83z"/>
	</g>
</g>
<g>
	<g>
		<path class="st0" d="M164.12,77.83l-5.2-6.53c-7.64-9.59-7.65-22.99-0.03-32.59c3.43-4.33,2.71-10.62-1.62-14.05
			c-4.33-3.43-10.62-2.71-14.05,1.62c-13.44,16.94-13.42,40.58,0.05,57.49l5.2,6.53c9.98,12.53,9.99,30.05,0.04,42.59l-5.33,6.72
			c-3.43,4.33-2.71,10.62,1.62,14.05c1.84,1.46,4.03,2.17,6.21,2.17c2.95,0,5.87-1.3,7.84-3.78l5.33-6.72
			C179.96,125.44,179.93,97.68,164.12,77.83z"/>
	</g>
</g>
<g>
	<g>
		<path class="st0" d="M150.28,178.26c-1.86-1.86-4.44-2.93-7.07-2.93s-5.21,1.07-7.07,2.93c-1.86,1.87-2.93,4.44-2.93,7.07
			s1.07,5.21,2.93,7.08c1.86,1.86,4.44,2.92,7.07,2.92s5.21-1.06,7.07-2.92c1.87-1.87,2.93-4.44,2.93-7.08
			C153.21,182.7,152.15,180.12,150.28,178.26z"/>
	</g>
</g>
<g>
	<g>
		<path class="st0" d="M362,262c-5.52,0-10,4.48-10,10c0,37.12-15.06,73.6-41.31,100.08c-3.89,3.92-3.86,10.25,0.06,14.14
			c1.95,1.93,4.49,2.9,7.04,2.9c2.57,0,5.15-0.99,7.1-2.96C354.83,355.96,372,314.35,372,272C372,266.48,367.52,262,362,262z"/>
	</g>
</g>
<g>
	<g>
		<path class="st0" d="M293.89,399.23c-2.71-4.81-8.81-6.51-13.62-3.8l-0.23,0.13c-4.81,2.71-6.51,8.81-3.8,13.62
			c1.84,3.26,5.23,5.09,8.72,5.09c1.66,0,3.35-0.42,4.9-1.29l0.23-0.13C294.9,410.13,296.6,404.04,293.89,399.23z"/>
	</g>
</g>
</svg>
