<svg id="Layer_1" data-name="Layer 1" xmlns="http://www.w3.org/2000/svg" viewBox="0 0 612 792"><defs><style>.cls-1{fill:#ee6737;}.cls-2{fill:#fefcfc;}.cls-3{fill:#fefefe;}</style></defs><title>grandcircus</title><path class="cls-1" d="M611.77,397.76q0,190.82.23,381.64c0,10.49-1.64,12.62-9.74,12.6Q306,791.45,9.74,792C1.63,792,0,789.89,0,779.4Q.43,396,0,12.6C0,2.11,1.63,0,9.74,0Q306,.55,602.26,0c8.1,0,9.77,2.11,9.74,12.6Q611.47,205.19,611.77,397.76Z" transform="translate(0)"/><path class="cls-2" d="M307.47,525.48c-3.3,0-6.6-.07-9.9,0-5.88.14-7.91-2.63-6.66-8.28,4.08-18.58,8-37.19,12.23-55.74.57-2.52.5-6.47,4.9-6,3.42.39,3.3,3.71,3.82,6,4.13,18.2,8,36.47,12.09,54.67,1.52,6.73-.71,9.78-7.68,9.37C313.35,525.34,310.4,525.49,307.47,525.48Z" transform="translate(0)"/><path class="cls-3" d="M317.5,344.31c25.89,17.48,51.67,35.12,77.74,52.33,6.48,4.28,10.71,9.37,13.25,16.77,10.78,31.33,22,62.53,33.11,93.74,2.53,7.1,4.49,14.5-4.59,17.59s-11.89-4.22-14.34-11.21c-8.76-25-18.68-49.68-26.18-75.07-4.75-16-13.56-26.95-27.51-35.47-18.8-11.49-36.93-24.1-55.22-36.42-4.7-3.16-8.59-2.63-13.09.38q-34.29,23-68.86,45.69c-4.44,2.89-6.23,6.81-7.85,11.41-10.64,30.2-21.53,60.31-32.07,90.54-2.43,7-5.63,13-14,10.15s-7.3-9.67-4.84-16.58q17.24-48.37,34.15-96.85c2.19-6.32,6.23-10.42,11.64-14,26.29-17.53,52.42-35.31,78.6-53,2.62-20.14.38-40.37,1.23-60.54.16-3.89-1.51-8.1,1.45-11.68,2.1-4.31,5.35-4.86,9.81-3.75,7.61,1.92,15.37,3.25,23.07,4.83l6,.77q13.36,3.27,26.72,6.56c2.55.63,5.36,1.31,5,4.7-.25,2.55-2.68,3-4.79,3.83-15.11,5.79-31.8,4.75-46.8,10.93-3.57,3-3,7.15-2.81,11.06C316.91,322.09,315,333.28,317.5,344.31Z" transform="translate(0)"/></svg>