<?xml version="1.0" encoding="utf-8"?>
<!-- Generator: Adobe Illustrator 23.0.2, SVG Export Plug-In . SVG Version: 6.00 Build 0)  -->
<svg version="1.1" id="Layer_1" xmlns="http://www.w3.org/2000/svg" xmlns:xlink="http://www.w3.org/1999/xlink" x="0px" y="0px"
	 viewBox="0 0 612 792" style="enable-background:new 0 0 612 792;" xml:space="preserve">
<style type="text/css">
	.st0{opacity:0;fill:#EE6737;}
	.st1{fill:#FEFCFC;}
	.st2{fill:#FEFEFE;}
</style>
<path class="st0" d="M611.77,397.76c0,127.21-0.12,254.43,0.23,381.64c0.03,10.5-1.64,12.62-9.74,12.6
	c-197.51-0.37-395.01-0.37-592.52,0c-8.11,0.02-9.75-2.11-9.74-12.6C0.29,523.8,0.29,268.2,0,12.6C-0.01,2.11,1.63-0.02,9.74,0
	c197.51,0.37,395.01,0.37,592.52,0c8.11-0.02,9.77,2.11,9.74,12.6C611.65,140.99,611.77,269.37,611.77,397.76z"/>
<g>
	<path class="st1" d="M307.43,640.7c-6.25-0.01-12.51-0.14-18.76,0.02c-11.14,0.27-14.98-5-12.63-15.69
		c7.74-35.2,15.21-70.47,23.18-105.62c1.08-4.76,0.94-12.25,9.28-11.29c6.48,0.75,6.27,7.04,7.24,11.31
		c7.84,34.48,15.1,69.09,22.91,103.58c2.89,12.76-1.35,18.54-14.55,17.75C318.56,640.44,312.98,640.71,307.43,640.7z"/>
	<path class="st2" d="M326.44,297.46c49.04,33.12,97.89,66.54,147.27,99.15c12.28,8.11,20.29,17.75,25.11,31.76
		c20.43,59.37,41.6,118.48,62.72,177.6c4.8,13.44,8.51,27.47-8.69,33.32c-17.33,5.89-22.54-7.99-27.18-21.25
		c-16.59-47.39-35.38-94.13-49.59-142.21c-8.99-30.42-25.69-51.06-52.11-67.2c-35.63-21.77-69.97-45.66-104.62-69
		c-8.9-6-16.28-5-24.8,0.72c-43.32,29.1-86.74,58.07-130.47,86.55c-8.4,5.47-11.81,12.9-14.88,21.61
		c-20.15,57.22-40.78,114.27-60.75,171.55c-4.61,13.24-10.68,24.59-26.44,19.23c-15.84-5.38-13.84-18.32-9.18-31.42
		c21.77-61.09,43.43-122.22,64.7-183.49c4.15-11.97,11.8-19.73,22.05-26.57c49.82-33.21,99.32-66.9,148.93-100.42
		c4.95-38.15,0.71-76.49,2.32-114.7c0.31-7.38-2.87-15.36,2.74-22.13c3.99-8.16,10.15-9.22,18.59-7.1
		c14.43,3.63,29.13,6.16,43.72,9.15c11.37,1.45,0,0,11.37,1.45c16.87,4.14,33.75,8.27,50.62,12.43c4.83,1.19,10.16,2.49,9.53,8.91
		c-0.48,4.83-5.08,5.72-9.08,7.26c-28.62,10.97-60.25,8.99-88.67,20.7c-6.76,5.71-5.67,13.55-5.32,20.96
		C325.32,255.37,321.71,276.56,326.44,297.46z"/>
</g>
</svg>
