<?xml version="1.0" encoding="utf-8"?>
<!-- Generator: Adobe Illustrator 23.0.2, SVG Export Plug-In . SVG Version: 6.00 Build 0)  -->
<svg version="1.1" id="Capa_1" xmlns="http://www.w3.org/2000/svg" xmlns:xlink="http://www.w3.org/1999/xlink" x="0px" y="0px"
	 viewBox="0 0 33 33" style="enable-background:new 0 0 33 33;" xml:space="preserve">
<style type="text/css">
	.st0{fill:#FFFFFF;}
</style>
<g>
	<path class="st0" d="M21.04,33H8.53c-0.25,0-0.47-0.19-0.5-0.44L5.45,9.9C5.43,9.76,5.47,9.62,5.57,9.51S5.8,9.35,5.94,9.35h17.69
		c0.14,0,0.28,0.06,0.37,0.17s0.14,0.25,0.12,0.39l-2.59,22.65C21.51,32.81,21.3,33,21.04,33z M8.98,32H20.6l2.48-21.65H6.5L8.98,32
		z"/>
	<path class="st0" d="M23.07,15.27H6.58c-0.28,0-0.5-0.22-0.5-0.5s0.22-0.5,0.5-0.5h16.49c0.28,0,0.5,0.22,0.5,0.5
		S23.35,15.27,23.07,15.27z"/>
	<path class="st0" d="M14.12,22.35h-3.09c-0.28,0-0.5-0.22-0.5-0.5v-3.09c0-0.28,0.22-0.5,0.5-0.5h3.09c0.28,0,0.5,0.22,0.5,0.5
		v3.09C14.62,22.13,14.4,22.35,14.12,22.35z M11.53,21.35h2.09v-2.09h-2.09V21.35z"/>
	<path class="st0" d="M17.73,28.64c-0.09,0-0.18-0.02-0.26-0.07l-2.64-1.61c-0.24-0.14-0.31-0.45-0.17-0.69l1.61-2.64
		c0.14-0.24,0.45-0.31,0.69-0.17l2.64,1.61c0.24,0.14,0.31,0.45,0.17,0.69l-1.61,2.64C18.06,28.55,17.89,28.64,17.73,28.64z
		 M15.77,26.36l1.78,1.09l1.09-1.78l-1.78-1.09L15.77,26.36z"/>
	<path class="st0" d="M23.66,15.9c-0.2,0-0.39-0.01-0.59-0.03c-0.27-0.03-0.48-0.27-0.45-0.55c0.03-0.27,0.26-0.46,0.55-0.45
		c0.16,0.02,0.33,0.02,0.49,0.02c2.88,0,5.22-2.34,5.22-5.22s-2.34-5.22-5.22-5.22s-5.22,2.34-5.22,5.22c0,0.28-0.22,0.5-0.5,0.5
		s-0.5-0.22-0.5-0.5c0-3.43,2.79-6.22,6.22-6.22c3.43,0,6.22,2.79,6.22,6.22C29.88,13.11,27.09,15.9,23.66,15.9z"/>
	<path class="st0" d="M11.03,10.18c-0.24,0-0.45-0.17-0.49-0.41L9.03,1h-5.4c-0.28,0-0.5-0.22-0.5-0.5S3.35,0,3.62,0h5.82
		C9.69,0,9.9,0.17,9.94,0.41l1.58,9.18c0.05,0.27-0.14,0.53-0.41,0.58C11.09,10.18,11.06,10.18,11.03,10.18z"/>
	<path class="st0" d="M23.63,10.35c-0.28,0-0.5-0.22-0.5-0.5V3.96c0-0.28,0.22-0.5,0.5-0.5s0.5,0.22,0.5,0.5v5.88
		C24.13,10.12,23.91,10.35,23.63,10.35z"/>
	<path class="st0" d="M27.69,14.21c-0.13,0-0.26-0.05-0.35-0.15l-8.05-8.06c-0.19-0.2-0.19-0.51,0-0.71s0.51-0.2,0.71,0l8.05,8.06
		c0.19,0.19,0.19,0.51,0,0.71C27.94,14.16,27.82,14.21,27.69,14.21z"/>
	<path class="st0" d="M23.63,10.35c-0.13,0-0.26-0.05-0.35-0.15c-0.19-0.19-0.19-0.51,0-0.71l4.08-4.08c0.19-0.2,0.51-0.2,0.71,0
		s0.19,0.51,0,0.71l-4.08,4.08C23.89,10.3,23.76,10.35,23.63,10.35z"/>
	<path class="st0" d="M29.38,10.18h-5.74c-0.28,0-0.5-0.22-0.5-0.5s0.22-0.5,0.5-0.5h5.74c0.28,0,0.5,0.22,0.5,0.5
		S29.65,10.18,29.38,10.18z"/>
</g>
</svg>
