<?xml version="1.0" encoding="utf-8"?>
<!-- Generator: Adobe Illustrator 23.0.2, SVG Export Plug-In . SVG Version: 6.00 Build 0)  -->
<svg version="1.1" id="Capa_1" xmlns="http://www.w3.org/2000/svg" xmlns:xlink="http://www.w3.org/1999/xlink" x="0px" y="0px"
	 viewBox="0 0 512 512" style="enable-background:new 0 0 512 512;" xml:space="preserve">
<style type="text/css">
	.st0{fill:#FFFFFF;}
</style>
<g>
	<g>
		<path class="st0" d="M367.86,339.66c0-11.39-5.33-21.54-13.68-28.05c8.35-6.52,13.77-16.66,13.77-28.05
			c0-11.99-6.21-22.61-15.33-29.06c9.18-7.25,14.86-18.48,14.86-31.06v-74.7l-71.91-93.63h15.8V0H200.16v55.11h16.8l-72.91,93.63
			v74.7c0,12.58,6.16,23.8,15.34,31.06c-9.12,6.45-14.97,17.06-14.97,29.06c0,11.39,5.45,21.54,13.81,28.05
			c-8.35,6.52-13.71,16.66-13.71,28.05c0,11.99,5.74,22.61,14.86,29.06c-9.18,7.25-15.33,18.48-15.33,31.06v64.12
			c0,21.82,18.26,40.08,40.08,40.08h40.08v-0.66c6.67,5.12,15.01,8.67,24.05,8.67h16.03c9.04,0,17.38-3.55,24.05-8.67v0.66h40.08
			c21.82,0,39.08-18.26,39.08-40.08v-64.12c0-12.58-5.66-23.8-14.84-31.06C361.76,362.27,367.86,351.66,367.86,339.66z
			 M215.19,40.08V15.03h81.16v25.05H215.19z M235.92,55.11h40.69l68.6,89.17H167.32L235.92,55.11z M332.42,319.62
			c11.33,0,20.54,9.21,20.54,20.54s-9.21,20.54-20.54,20.54h-20.04v15.03h16.03c13.54,0,24.05,10.51,24.05,24.05v64.12
			c0,13.54-10.51,25.05-24.05,25.05h-28.18c2.33-6.01,3.63-11.13,3.63-17.03h-15.03c0,13.54-11.01,25.05-24.55,25.05h-16.03
			c-13.54,0-24.55-11.51-24.55-25.05h-15.03c0,5.9,1.31,11.02,3.63,17.03h-28.18c-13.54,0-25.05-11.51-25.05-25.05v-64.12
			c0-13.54,11.51-24.05,25.05-24.05h80.16V360.7h-84.16c-11.33,0-20.54-9.21-20.54-20.54s9.21-20.54,20.54-20.54h84.16V304.6h-84.16
			c-11.33,0-20.54-9.21-20.54-20.54s9.21-20.54,20.54-20.54h84.16v-15.03h-80.16c-13.54,0-25.05-11.51-25.05-25.05v-64.12h193.38
			v64.12c0,13.54-10.51,25.05-24.05,25.05h-16.03v15.03h20.04c11.33,0,20.54,9.21,20.54,20.54s-9.21,20.54-20.54,20.54h-20.04v15.03
			H332.42z"/>
	</g>
</g>
<g>
	<g>
		<rect x="200.16" y="112.22" class="st0" width="16.03" height="15.03"/>
	</g>
</g>
<g>
	<g>
		<rect x="216.19" y="96.19" class="st0" width="16.03" height="15.03"/>
	</g>
</g>
<g>
	<g>
		<rect x="280.32" y="304.6" class="st0" width="16.03" height="15.03"/>
	</g>
</g>
<g>
	<g>
		<rect x="280.32" y="248.49" class="st0" width="16.03" height="15.03"/>
	</g>
</g>
<g>
	<g>
		<rect x="280.32" y="360.7" class="st0" width="16.03" height="15.03"/>
	</g>
</g>
</svg>
